# xmcd
#
# Track frame offsets: 
#        150
#        22176
#        45807
#        65748
#        79096
#        94211
#        113739
#        134481
#        151436
#        171116
#
# Disc length: 2483 seconds
#
# Revision: 1
# Processed by: cddbd v1.5.1PL0 Copyright (c) Steve Scherf et al.
# Submitted via: ExactAudioCopy v0.95a5
#
DISCID=8009b10a
DTITLE=孫悅 - 她和她們
DYEAR=2004
DGENRE=Pop
TTITLE0=傾城之戀
TTITLE1=天別亮
TTITLE2=因為我是女人
TTITLE3=真世界
TTITLE4=永遠在一起
TTITLE5=他們愛著的我們
TTITLE6=小龍女
TTITLE7=熱帶魚和仙人球
TTITLE8=她的婚禮
TTITLE9=悅兒
EXTD=
EXTT0=
EXTT1=
EXTT2=
EXTT3=
EXTT4=
EXTT5=
EXTT6=
EXTT7=
EXTT8=
EXTT9=
PLAYORDER=
